<svg width="10" height="8" viewBox="0 0 10 8" fill="none" xmlns="http://www.w3.org/2000/svg">
<path d="M9.20692 0.793C9.39439 0.980528 9.49971 1.23484 9.49971 1.5C9.49971 1.76516 9.39439 2.01947 9.20692 2.207L4.20692 7.207C4.01939 7.39447 3.76508 7.49979 3.49992 7.49979C3.23475 7.49979 2.98045 7.39447 2.79292 7.207L0.792919 5.207C0.610761 5.0184 0.509966 4.7658 0.512245 4.5036C0.514523 4.2414 0.619692 3.99059 0.8051 3.80518C0.990508 3.61977 1.24132 3.5146 1.50352 3.51233C1.76571 3.51005 2.01832 3.61084 2.20692 3.793L3.49992 5.086L7.79292 0.793C7.98045 0.605529 8.23475 0.500214 8.49992 0.500214C8.76508 0.500214 9.01939 0.605529 9.20692 0.793Z" fill="#FFFFFF"/>
</svg>
